<?xml version="1.0" encoding="utf-8"?>
<!-- Generator: Adobe Illustrator 26.1.0, SVG Export Plug-In . SVG Version: 6.00 Build 0)  -->
<svg version="1.1" id="Layer_1" xmlns="http://www.w3.org/2000/svg" xmlns:xlink="http://www.w3.org/1999/xlink" x="0px" y="0px"
	 viewBox="0 0 36 36" style="enable-background:new 0 0 36 36;" xml:space="preserve">
<style type="text/css">
	.st0{fill-rule:evenodd;clip-rule:evenodd;}
</style>
<path class="st0" d="M30.8,13.5C30.5,12.5,30,12,29,12h-2.1c0.1,0.7,0.1,1.5,0.1,2.2c0,1-1.5,1-1.5,0c0-0.8-0.1-1.5-0.2-2.2H10.7
	c-0.1,0.7-0.2,1.5-0.2,2.2c0,1-1.5,1-1.5,0c0-0.8,0.1-1.5,0.1-2.2H7c-1.1,0-1.5,0.5-1.8,1.5l-3,18c0,0.8,0.7,1.5,1.5,1.5h28.5
	c0.8,0,1.5-0.7,1.5-1.5L30.8,13.5z M18,3c-3.3,0-6,3.1-7.1,7.5h14.1C24,6.1,21.3,3,18,3z M32.2,34.5H3.8c-1.7,0-3-1.3-3-3l3-18
	c0.5-2.6,2-3,3.7-3h2c1.1-5.2,4.6-9,8.6-9s7.5,3.8,8.6,9h2c1.7,0,3.1,0.4,3.7,3l3,18C35.2,33.2,33.9,34.5,32.2,34.5L32.2,34.5z"/>
</svg>
